<?xml version="1.0" standalone="no"?>
<!DOCTYPE svg PUBLIC "-//W3C//DTD SVG 20010904//EN"
 "http://www.w3.org/TR/2001/REC-SVG-20010904/DTD/svg10.dtd">
<svg version="1.0" xmlns="http://www.w3.org/2000/svg"
 width="282.000000pt" height="84.000000pt" viewBox="0 0 282.000000 84.000000"
 preserveAspectRatio="xMidYMid meet">

<g transform="translate(0.000000,84.000000) scale(0.100000,-0.100000)"
fill="#000000" stroke="none">
<path d="M2421 697 c-64 -149 -161 -472 -161 -535 0 -32 26 -62 54 -62 14 0
17 6 13 27 -7 37 23 155 99 390 36 111 63 207 59 213 -15 25 -46 9 -64 -33z"/>
<path d="M350 683 c-60 -5 -151 -24 -176 -35 -26 -12 -32 -45 -11 -54 11 -4 7
-26 -19 -102 -32 -94 -64 -245 -64 -304 0 -31 26 -50 40 -28 4 7 24 63 45 125
l37 112 106 7 c110 7 129 13 119 40 -7 18 -24 19 -135 7 l-73 -7 6 26 c3 14
19 53 34 86 l29 62 120 7 c94 6 122 10 127 22 14 39 -43 50 -185 36z"/>
<path d="M2108 653 c-52 -60 -96 -158 -143 -324 -41 -143 -43 -165 -15 -174
49 -16 145 -9 187 13 82 43 136 165 109 249 -12 38 -88 55 -141 31 -14 -6 -28
-9 -31 -5 -8 8 12 67 47 144 16 34 29 67 29 73 0 16 -25 12 -42 -7z m80 -270
c13 -26 -3 -74 -41 -117 -28 -33 -40 -39 -85 -44 -59 -5 -63 2 -36 66 36 86
137 145 162 95z"/>
<path d="M973 493 c-86 -30 -122 -119 -67 -162 15 -12 45 -26 68 -32 98 -27
106 -31 106 -49 0 -32 -39 -50 -105 -50 -69 0 -80 5 -94 43 -13 33 -44 34 -49
1 -4 -30 34 -72 76 -84 116 -32 222 11 222 90 0 49 -28 74 -113 100 -50 16
-67 25 -67 39 0 23 41 41 105 48 44 4 53 2 74 -21 28 -30 43 -32 61 -11 18 22
-1 60 -42 85 -40 24 -113 25 -175 3z"/>
<path d="M1345 491 c-44 -20 -104 -81 -131 -133 -22 -43 -22 -109 0 -143 54
-83 220 -79 270 5 17 29 17 30 -2 30 -11 0 -39 -7 -62 -15 -83 -29 -160 -8
-160 44 0 16 11 19 88 23 74 3 96 9 136 32 74 43 83 101 24 151 -36 31 -104
33 -163 6z m124 -65 c10 -12 7 -18 -13 -31 -44 -29 -156 -47 -156 -25 0 5 19
23 42 40 45 33 107 41 127 16z"/>
<path d="M2570 494 c-81 -35 -154 -136 -152 -212 1 -98 93 -150 207 -117 43
12 60 23 75 48 17 28 18 32 5 35 -9 2 -37 -3 -62 -12 -90 -31 -162 -10 -163
45 0 14 15 17 83 21 101 6 169 33 192 77 20 39 11 74 -27 106 -35 30 -102 33
-158 9z m119 -68 c10 -12 8 -18 -11 -30 -41 -27 -158 -47 -158 -27 0 5 19 23
42 40 46 34 107 42 127 17z"/>
<path d="M749 479 c-6 -12 -19 -45 -29 -75 -32 -93 -101 -174 -149 -174 -37 0
-42 71 -11 152 11 29 20 65 20 81 0 23 -4 27 -30 27 -20 0 -34 -8 -45 -23 -24
-37 -55 -137 -55 -179 0 -75 51 -138 112 -138 28 0 82 35 102 65 18 28 36 25
36 -5 0 -23 42 -53 66 -48 30 6 40 34 21 56 -22 24 -23 112 -2 194 12 46 13
63 4 74 -16 19 -26 18 -40 -7z"/>
<path d="M1685 454 c-78 -40 -138 -129 -137 -202 0 -57 23 -89 72 -102 47 -13
80 -6 110 22 18 17 26 19 39 10 39 -29 62 -35 89 -26 32 11 41 42 15 50 -57
18 -60 52 -12 166 22 50 27 73 20 82 -16 20 -159 20 -196 0z m115 -46 c0 -7
-11 -35 -24 -63 -44 -95 -110 -151 -143 -123 -30 24 0 132 49 178 25 23 118
29 118 8z"/>
</g>
</svg>
